<svg width="1200" height="760" viewBox="0 0 1200 760" fill="none" xmlns="http://www.w3.org/2000/svg">
  <rect width="1200" height="760" fill="#EDE2D0"/>
  <rect x="54" y="54" width="1092" height="652" rx="28" fill="#F7F0E5"/>
  <path d="M122 522C252 410 338 348 456 300C602 240 734 232 882 280C960 306 1020 344 1084 394V654H122V522Z" fill="#C9A27B"/>
  <path d="M146 540C270 436 364 388 482 352C640 302 788 314 930 390C988 420 1036 452 1084 488V654H146V540Z" fill="#8F4B2C"/>
  <rect x="194" y="214" width="242" height="266" rx="12" fill="#F9F3EA" stroke="#8F4B2C" stroke-opacity="0.3"/>
  <rect x="236" y="256" width="158" height="24" rx="12" fill="#B1863A"/>
  <rect x="236" y="302" width="158" height="148" rx="8" fill="#E6D6BF"/>
  <rect x="518" y="170" width="514" height="342" rx="16" fill="#F9F3EA" stroke="#315F68" stroke-opacity="0.2"/>
  <rect x="560" y="218" width="430" height="38" rx="19" fill="#315F68" fill-opacity="0.15"/>
  <rect x="560" y="280" width="348" height="18" rx="9" fill="#D7C6AF"/>
  <rect x="560" y="314" width="404" height="18" rx="9" fill="#D7C6AF"/>
  <rect x="560" y="348" width="286" height="18" rx="9" fill="#D7C6AF"/>
  <circle cx="936" cy="126" r="58" fill="#315F68" fill-opacity="0.14"/>
  <circle cx="260" cy="124" r="46" fill="#B1863A" fill-opacity="0.2"/>
  <path d="M736 150L770 118L804 150" stroke="#8F4B2C" stroke-width="8" stroke-linecap="round"/>
  <path d="M716 162H824" stroke="#8F4B2C" stroke-width="10" stroke-linecap="round"/>
</svg>
